<svg width="2068" height="2068" viewBox="0 0 2068 2068" fill="none"
  xmlns="http://www.w3.org/2000/svg">
  <g clip-path="url(#clip0_1447_487)">
    <path d="M2068 0H0V2068H2068V0Z" fill="black" />
    <path
      d="M704.216 965.614C770.321 965.614 818.425 1011.6 815.012 1095.17H654.028C660.04 1118.4 676.101 1138.36 708.25 1138.36C726.251 1138.36 742.7 1133.39 755.114 1117.85H810.667L809.736 1122.82C800.115 1165.39 751.699 1189 708.25 1189C639.352 1189 593.11 1142.4 593.11 1077.46C593.11 1012.53 639.352 965.614 704.216 965.614ZM1170.05 965.614C1236.47 965.614 1284.27 1011.6 1281.16 1095.17H1120.13C1126.07 1118.4 1142.02 1138.36 1174.4 1138.36C1192.4 1138.36 1208.85 1133.39 1220.95 1117.85H1276.82L1275.89 1122.82C1266.26 1165.39 1217.85 1189 1174.4 1189C1105.5 1189 1059.26 1142.4 1059.26 1077.46C1059.26 1012.53 1105.5 965.614 1170.05 965.614ZM1765 1182.79H1704.79L1707.89 1152.65C1699.51 1170.67 1672.52 1188.38 1638.68 1188.38C1582.82 1188.38 1537.51 1145.5 1537.51 1077.77C1537.51 1010.04 1582.2 967.168 1638.68 967.168C1669.41 967.168 1688.34 977.111 1705.1 994.198V878H1765V1182.79ZM933.257 964.372C982.293 964.372 1025.43 982.081 1037.85 1025.58L1039.09 1030.24H977.947C964.912 1014.08 947.533 1011.91 933.257 1011.91C919.912 1011.91 898.808 1015.33 898.808 1028.37C898.808 1040.49 912.774 1044.53 924.878 1046.08L960.258 1049.81C1016.43 1054.78 1041.26 1076.84 1041.26 1120.03C1041.26 1169.74 991.913 1188.38 943.187 1188.38C894.462 1188.38 843.875 1166.63 834.254 1122.51L833.323 1117.85H896.014C904.704 1142.71 944.739 1140.84 943.187 1140.84C966.774 1140.84 981.362 1133.7 981.362 1122.2C981.362 1114.75 978.878 1106.05 954.671 1102.94L917.739 1099.21C869.014 1095.79 839.53 1070.01 839.53 1031.48C839.53 984.255 884.221 964.372 933.257 964.372ZM488.212 878C547.178 878 582.248 913.108 582.248 959.712C582.248 1006.31 547.178 1041.42 488.212 1041.42H458.417L606.456 1182.79H501.867L389.209 1075.6C381.14 1068.14 377.416 1059.44 377.416 1051.99C377.416 1041.42 384.864 1032.1 399.14 1028.06L457.176 1012.53C479.211 1006.63 494.419 989.538 494.419 967.168C494.419 939.827 472.073 923.982 444.452 923.982H302V878H488.212ZM1426.71 965.924C1479.48 965.924 1516.41 1004.45 1516.41 1059.44V1182.79H1456.2V1069.69C1456.2 1038.63 1439.75 1019.98 1410.57 1019.98C1381.4 1019.98 1362.48 1039.25 1362.48 1069.69V1182.79H1303.5V970.274H1363.41L1360.61 1004.14C1369.3 987.051 1396.3 965.924 1426.71 965.924ZM1652.96 1019.99C1616.65 1019.99 1597.41 1047.02 1597.41 1077.77C1597.41 1110.71 1619.14 1135.87 1652.96 1135.87C1685.55 1135.87 1706.65 1110.4 1706.65 1077.77C1706.65 1045.15 1686.17 1019.99 1652.96 1019.99ZM704.216 1013.77C674.879 1013.77 658.116 1031.31 652.914 1054.78H754.456C753.838 1052.08 753.043 1049.19 752.01 1046.08C744.561 1024.96 727.182 1013.77 704.216 1013.77ZM1170.05 1013.77C1140.97 1013.77 1124.25 1031.31 1119.06 1054.78H1220.61C1219.98 1052.08 1219.19 1049.19 1218.16 1046.08C1210.71 1024.96 1193.33 1013.77 1170.05 1013.77Z"
      fill="white" />
  </g>
  <defs>
    <clipPath id="clip0_1447_487">
      <rect width="2068" height="2068" fill="white" />
    </clipPath>
  </defs>
</svg>