<svg width="1500" height="489" viewBox="0 0 1500 489" fill="none" xmlns="http://www.w3.org/2000/svg">
  <path
    d="M420.216 176.614C486.321 176.614 534.425 222.596 531.012 306.171H370.028C376.04 329.399 392.101 349.357 424.25 349.357C442.251 349.357 458.7 344.387 471.114 328.852H526.667L525.736 333.823C516.115 376.388 467.699 400 424.25 400C355.352 400 309.11 353.396 309.11 288.462C309.11 223.528 355.352 176.614 420.216 176.614ZM886.052 176.614C952.471 176.614 1000.27 222.596 997.16 306.171H836.134C842.073 329.399 858.019 349.357 890.401 349.357C908.403 349.357 924.845 344.387 936.953 328.852H992.818L991.886 333.823C982.263 376.387 933.847 400 890.401 400C821.504 400 775.262 353.397 775.262 288.462C775.262 223.528 821.504 176.614 886.052 176.614ZM1481 393.787H1420.79L1423.89 363.65C1415.51 381.67 1388.52 399.379 1354.68 399.379C1298.82 399.379 1253.51 356.504 1253.51 288.774C1253.51 221.043 1298.2 178.168 1354.68 178.168C1385.41 178.168 1404.34 188.111 1421.1 205.198V89H1481V393.787ZM649.257 175.372C698.293 175.372 741.431 193.081 753.845 236.578L755.087 241.238H693.947C680.912 225.082 663.533 222.907 649.257 222.907C635.912 222.907 614.808 226.325 614.808 239.374C614.808 251.491 628.774 255.529 640.878 257.083L676.258 260.811C732.431 265.783 757.26 287.842 757.26 331.028C757.26 380.737 707.913 399.379 659.187 399.379C610.462 399.379 559.875 377.63 550.254 333.513L549.323 328.852H612.014C620.704 353.708 660.739 351.843 659.187 351.843C682.774 351.843 697.362 344.698 697.362 333.202C697.362 325.745 694.878 317.046 670.671 313.939L633.739 310.211C585.014 306.793 555.53 281.005 555.53 242.48C555.53 195.255 600.221 175.372 649.257 175.372ZM204.212 89C263.178 89 298.248 124.108 298.248 170.712C298.248 217.315 263.178 252.423 204.212 252.423H174.417L322.456 393.787H217.867L105.209 286.599C97.1403 279.142 93.4155 270.443 93.4155 262.987C93.4155 252.423 100.864 243.103 115.14 239.063L173.176 223.529C195.211 217.626 210.419 200.538 210.419 178.168C210.419 150.827 188.073 134.982 160.452 134.982H18V89H204.212ZM1142.71 176.924C1195.48 176.924 1232.41 215.45 1232.41 270.442V393.786H1172.2V280.694C1172.2 249.626 1155.75 230.984 1126.57 230.984C1097.4 230.984 1078.48 250.247 1078.48 280.694V393.786H1019.5V181.274H1079.41L1076.61 215.139C1085.3 198.051 1112.3 176.924 1142.71 176.924ZM1368.96 230.986C1332.65 230.986 1313.41 258.015 1313.41 288.774C1313.41 321.706 1335.14 346.872 1368.96 346.872C1401.55 346.872 1422.65 321.396 1422.65 288.774C1422.65 256.151 1402.17 230.986 1368.96 230.986ZM420.216 224.77C390.879 224.77 374.116 242.309 368.914 265.781H470.456C469.838 263.079 469.043 260.189 468.01 257.082C460.561 235.956 443.182 224.771 420.216 224.77ZM886.052 224.77C856.969 224.771 840.253 242.309 835.061 265.781H936.606C935.984 263.079 935.193 260.189 934.158 257.082C926.709 235.956 909.328 224.77 886.052 224.77Z"
    fill="black" />
</svg>